<?xml version="1.0" encoding="UTF-8" standalone="no"?>
<svg width="29" height="29" viewBox="0 0 29 29" fill="none" xmlns="http://www.w3.org/2000/svg">
    <title>Delete icon</title>
    <circle cx="14.6729" cy="14.6428" r="14.2678" fill="#242424"/>
    <path d="M12.9837 7.31458C12.9837 7.16343 13.0437 7.01848 13.1506 6.91161C13.2575 6.80473 13.4024 6.74469 13.5536 6.74469H16.593C16.7441 6.74469 16.8891 6.80473 16.9959 6.91161C17.1028 7.01848 17.1629 7.16343 17.1629 7.31458V7.88446H20.3922C20.5434 7.88446 20.6883 7.9445 20.7952 8.05138C20.9021 8.15825 20.9621 8.30321 20.9621 8.45435C20.9621 8.60549 20.9021 8.75045 20.7952 8.85732C20.6883 8.96419 20.5434 9.02424 20.3922 9.02424H9.75433C9.60319 9.02424 9.45824 8.96419 9.35136 8.85732C9.24449 8.75045 9.18445 8.60549 9.18445 8.45435C9.18445 8.30321 9.24449 8.15825 9.35136 8.05138C9.45824 7.9445 9.60319 7.88446 9.75433 7.88446H12.9837V7.31458Z" fill="white"/>
    <path fill-rule="evenodd" clip-rule="evenodd" d="M10.6989 11.0718C10.7092 10.9788 10.7534 10.8929 10.8231 10.8305C10.8928 10.7681 10.983 10.7336 11.0766 10.7336H19.0747C19.1683 10.7336 19.2585 10.7681 19.3282 10.8305C19.3979 10.8929 19.4421 10.9788 19.4524 11.0718L19.6044 12.4403C19.8787 14.9075 19.8787 17.3975 19.6044 19.8647L19.5892 19.9992C19.5409 20.4361 19.3484 20.8444 19.0421 21.1596C18.7357 21.4747 18.3331 21.6787 17.8977 21.7393C16.0255 22.0013 14.1258 22.0013 12.2536 21.7393C11.8181 21.6789 11.4153 21.4749 11.1088 21.1598C10.8023 20.8446 10.6096 20.4362 10.5614 19.9992L10.5462 19.8647C10.2719 17.3978 10.2719 14.908 10.5462 12.441L10.6989 11.0718ZM14.1258 13.6971C14.1258 13.5459 14.0658 13.401 13.9589 13.2941C13.8521 13.1872 13.7071 13.1272 13.556 13.1272C13.4048 13.1272 13.2599 13.1872 13.153 13.2941C13.0461 13.401 12.9861 13.5459 12.9861 13.6971V19.016C12.9861 19.1671 13.0461 19.3121 13.153 19.419C13.2599 19.5258 13.4048 19.5859 13.556 19.5859C13.7071 19.5859 13.8521 19.5258 13.9589 19.419C14.0658 19.3121 14.1258 19.1671 14.1258 19.016V13.6971ZM17.1652 13.6971C17.1652 13.5459 17.1052 13.401 16.9983 13.2941C16.8915 13.1872 16.7465 13.1272 16.5954 13.1272C16.4442 13.1272 16.2993 13.1872 16.1924 13.2941C16.0855 13.401 16.0255 13.5459 16.0255 13.6971V19.016C16.0255 19.1671 16.0855 19.3121 16.1924 19.419C16.2993 19.5258 16.4442 19.5859 16.5954 19.5859C16.7465 19.5859 16.8915 19.5258 16.9983 19.419C17.1052 19.3121 17.1652 19.1671 17.1652 19.016V13.6971Z" fill="white"/>
</svg>